<?xml version="1.0" encoding="UTF-8"?> <svg xmlns="http://www.w3.org/2000/svg" width="65.002" height="64.999" viewBox="0 0 65.002 64.999"><defs><style>.a{fill:#dcf900;}.b{fill:#232830;}</style></defs><path class="a" d="M64.977,47.141v16a1.821,1.821,0,0,1-.4,1.206A1.789,1.789,0,0,1,63.238,65c-.121.008-.241,0-.363,0q-15.042,0-30.086,0c-1.037,0-2.076-.041-3.109-.122a31.281,31.281,0,0,1-4.819-.78,32.047,32.047,0,0,1-6.848-2.483A32.6,32.6,0,0,1,1.47,42.238,28.762,28.762,0,0,1,.377,37.478C.25,36.543.157,35.6.07,34.66A27.283,27.283,0,0,1,.035,30.7,32.433,32.433,0,0,1,3.593,17.6,32.765,32.765,0,0,1,14.937,5.133,31.888,31.888,0,0,1,24.978.867c.958-.224,1.928-.41,2.9-.55C28.816.184,29.758.11,30.7.055,31.54,0,32.391,0,33.236,0a28.679,28.679,0,0,1,3.105.219,31.453,31.453,0,0,1,4.3.8,31.889,31.889,0,0,1,5.2,1.829A32.636,32.636,0,0,1,63.6,23.042a31.19,31.19,0,0,1,1.028,4.589,27.41,27.41,0,0,1,.3,2.91c.025.644.056,1.288.057,1.932Q64.982,39.807,64.977,47.141ZM19.494,41.117a.48.48,0,0,0,.157.063q1.521.006,3.041,0a.518.518,0,0,0,.179-.074V35.26c0-.079.007-.16.011-.24a.233.233,0,0,0,.051,0c.036.048.072.093.111.141L28.2,41.12a1.161,1.161,0,0,0,.251.057q1.776.006,3.552,0a1.06,1.06,0,0,0,.249-.061c.056-.194-.05-.318-.171-.45q-2.744-3.014-5.483-6.032c-.216-.237-.43-.477-.654-.731.28-.311.541-.611.808-.91q2.283-2.557,4.567-5.11a.413.413,0,0,0,.151-.374,1.077,1.077,0,0,0-.246-.062q-1.761-.006-3.523,0a1.251,1.251,0,0,0-.228.047c-.068.073-.14.142-.2.219q-.736.875-1.47,1.754-1.43,1.709-2.856,3.421h-.059c0-.131-.008-.262-.008-.393v-10.3c0-.121,0-.242-.008-.363a.539.539,0,0,0-.175-.067q-1.5-.007-3,0a.633.633,0,0,0-.187.062.05.05,0,0,0,0,.057c0,.1-.009.2-.009.3V40.751c0,.1.007.2.011.3a.064.064,0,0,0-.008.065ZM35.21,43.36h0a.729.729,0,0,0,.187.053h3.076a.633.633,0,0,0,.187-.06c.137-.318.28-.632.409-.953.27-.674.533-1.352.8-2.027s.528-1.332.786-2c.173-.447.327-.9.5-1.345.246-.621.51-1.233.754-1.854s.467-1.23.7-1.844c.254-.659.515-1.315.774-1.973l.788-2c.3-.767.6-1.534.909-2.3.3-.748.608-1.5.908-2.244q.421-1.057.837-2.118L47.9,19.964c-.068-.136-.194-.078-.293-.078q-1.461-.007-2.92,0a1.7,1.7,0,0,0-.286.05c-.131.308-.265.615-.392.926-.374.916-.748,1.832-1.11,2.753-.328.834-.635,1.677-.962,2.511-.3.76-.617,1.512-.915,2.272-.3.776-.588,1.56-.894,2.337-.358.912-.736,1.816-1.094,2.728-.336.854-.65,1.715-.985,2.569s-.686,1.683-1.019,2.53c-.308.785-.6,1.577-.9,2.364s-.616,1.58-.923,2.369c-.007.007-.022.015-.021.018a.373.373,0,0,0,.025.05Z" transform="translate(0.02 -0.003)"></path><path class="b" d="M15.717,23.359c.308-.789.619-1.578.923-2.369s.594-1.579.9-2.364c.333-.846.687-1.683,1.019-2.53s.649-1.716.985-2.569c.358-.912.736-1.816,1.094-2.728.306-.776.59-1.56.894-2.337.3-.76.618-1.512.915-2.272.327-.834.634-1.677.962-2.511.362-.921.738-1.837,1.11-2.753.126-.311.261-.618.392-.926q1.569,0,3.139.01c.121,0,.24.011.361.018L27.338,2.762c-.28.707-.554,1.414-.837,2.118-.3.748-.608,1.5-.907,2.244-.307.766-.607,1.533-.909,2.3l-.788,2c-.259.654-.52,1.309-.774,1.972-.236.613-.459,1.232-.7,1.844s-.508,1.233-.754,1.854c-.177.445-.331.9-.5,1.345-.258.667-.523,1.333-.786,2s-.528,1.353-.8,2.027c-.129.321-.272.635-.41.953l-3.451.007C15.719,23.4,15.717,23.379,15.717,23.359ZM8.7,21.182Q6.13,18.2,3.553,15.22c-.039-.045-.075-.094-.111-.141l-.023-.04-.028.036c0,.08-.011.161-.011.24v5.846l-3.319,0c-.016-.016-.035-.032-.049-.049,0-.1-.011-.2-.011-.3V2.245c0-.1.006-.2.009-.3l.052-.051H3.369c0,.121.008.242.008.363v10.3c0,.131.005.262.008.393h.059Q4.871,11.243,6.3,9.533q.734-.879,1.47-1.754c.064-.077.136-.146.2-.219.121,0,.24.011.36.011q1.818,0,3.637,0c.037.16-.055.262-.151.374Q9.536,10.5,7.254,13.06c-.266.3-.531.6-.808.91L7.1,14.7q2.74,3.016,5.483,6.032c.12.132.227.256.171.45Z" transform="translate(19.511 19.941)"></path></svg> 